<?xml version="1.0" standalone="no"?><!DOCTYPE svg PUBLIC "-//W3C//DTD SVG 1.1//EN" "http://www.w3.org/Graphics/SVG/1.1/DTD/svg11.dtd"><svg t="1513144659552" class="icon" style="" viewBox="0 0 1063 1024" version="1.1" xmlns="http://www.w3.org/2000/svg" p-id="3058" xmlns:xlink="http://www.w3.org/1999/xlink" width="5.1904296875" height="5"><defs><style type="text/css"></style></defs><path d="M759.621818 98.41039c104.261818 0 188.841558 89.367273 188.841559 198.948571 0 20.745974-3.191688 40.96-9.043117 60.642078 0 0.531948-0.531948 1.063896-0.531948 1.595844-27.661299 99.474286-114.368831 227.141818-250.547533 369.703896-61.174026 64.365714-120.22026 118.624416-159.584415 153.201039-38.832208-34.044675-96.814545-87.771429-157.988572-151.605195-136.710649-143.094026-223.418182-271.293506-251.611428-371.29974 0-0.531948-0.531948-1.063896-0.531948-1.595844-5.851429-19.682078-9.043117-40.428052-9.043117-61.174026 0-109.581299 84.57974-198.948571 188.841558-198.948571 73.940779 0 133.518961 45.215584 159.584416 120.752207 7.447273 21.277922 23.937662 37.768312 44.683636 45.747533 7.979221 3.191688 17.022338 4.255584 25.533507 4.255584 9.043117 0 18.086234-1.595844 26.065454-4.255584 0 0-2.65974 1.063896-3.723636 1.063896 22.873766-6.915325 40.96-24.46961 48.939221-46.811429 26.597403-75.004675 86.175584-120.22026 160.116363-120.220259m0-74.472728c-110.645195 0-195.224935 70.749091-229.801558 170.755325h-0.531948-0.531948c-34.576623-100.006234-119.688312-170.755325-229.801559-170.755325-145.753766 0-263.314286 122.348052-263.314286 273.421299 0 28.725195 4.255584 56.386494 12.234806 82.983896 76.600519 272.357403 481.412987 600.569351 481.412987 600.569351s405.344416-328.211948 481.412987-600.569351c7.979221-26.065455 12.234805-53.726753 12.234805-82.983896 0-151.073247-117.560519-273.421299-263.314286-273.421299z" p-id="3059"></path></svg>