<?xml version="1.0" standalone="no"?><!DOCTYPE svg PUBLIC "-//W3C//DTD SVG 1.1//EN" "http://www.w3.org/Graphics/SVG/1.1/DTD/svg11.dtd"><svg t="1511856717613" class="icon" style="" viewBox="0 0 1024 1024" version="1.1" xmlns="http://www.w3.org/2000/svg" p-id="988" xmlns:xlink="http://www.w3.org/1999/xlink" width="20" height="20"><defs><style type="text/css"></style></defs><path d="M234.816 148.911c-32.42 22.918-61.24 48.881-86.453 77.88-25.216 29.007-46.829 60.337-64.838 93.996-18.012 33.66-31.702 69.29-41.067 106.886-9.364 37.595-14.047 75.73-14.047 114.403 0 66.604 12.787 129.084 38.361 187.453 25.576 58.365 60.157 109.213 103.742 152.537 43.591 43.33 94.74 77.703 153.454 103.127 58.712 25.424 121.574 38.137 188.568 38.137 66.283 0 128.782-12.713 187.495-38.137 58.721-25.424 110.048-59.799 153.994-103.127 43.948-43.326 78.527-94.174 103.742-152.537 25.216-58.371 37.822-120.852 37.822-187.457 0-37.95-4.5-75.193-13.509-111.715-9.01-36.521-21.793-71.256-38.359-104.202-16.574-32.94-37.107-63.735-61.601-92.38-24.493-28.648-51.868-54.431-82.13-77.348-15.851-11.459-32.959-15.755-51.333-12.892-18.366 2.869-33.315 11.817-44.847 26.855-11.529 15.044-15.851 31.872-12.971 50.491 2.889 18.62 11.889 33.66 27.018 45.12 45.39 32.94 80.15 73.4 104.289 121.384 24.13 47.983 36.194 99.543 36.194 154.686 0 47.266-9.002 91.852-27.017 133.746-18.01 41.893-42.681 78.414-74.018 109.566-31.345 31.156-68.086 55.865-110.23 74.125-42.146 18.258-86.988 27.389-134.545 27.389-47.545 0-92.393-9.129-134.537-27.389-42.146-18.262-78.891-42.967-110.228-74.125-31.335-31.152-56.19-67.672-74.562-109.566-18.375-41.895-27.557-86.479-27.555-133.746 0-55.853 12.964-108.674 38.899-158.446 25.937-49.771 62.32-90.767 109.146-122.996 15.847-10.743 25.396-25.424 28.636-44.045 3.245-18.62-0.537-35.809-11.342-51.566-10.81-15.04-25.578-24.171-44.309-27.391-18.732-3.22-36.015 0.534-51.867 11.276l0 0L234.816 148.911zM512.54 545.303c18.735 0 34.765-6.625 48.092-19.873 13.328-13.251 19.992-29.186 19.992-47.808L580.624 69.418c0-18.621-6.664-34.734-19.992-48.34C547.304 7.472 531.275 0.67 512.54 0.67c-19.448 0-35.837 6.803-49.166 20.409-13.329 13.607-19.992 29.72-19.992 48.34l0 408.205c0 18.621 6.665 34.557 19.992 47.808 13.33 13.246 29.718 19.873 49.166 19.873l0 0L512.54 545.303z" p-id="989" fill="#cdcdcd"></path></svg>