<?xml version="1.0" standalone="no"?><!DOCTYPE svg PUBLIC "-//W3C//DTD SVG 1.1//EN" "http://www.w3.org/Graphics/SVG/1.1/DTD/svg11.dtd"><svg t="1511852342887" class="icon" style="" viewBox="0 0 1059 1024" version="1.1" xmlns="http://www.w3.org/2000/svg" p-id="2331" xmlns:xlink="http://www.w3.org/1999/xlink" width="20.68359375" height="20"><defs><style type="text/css"></style></defs><path d="M960.819511 801.531804l0-71.518558c23.085946-14.987247 38.392353-40.985533 38.392353-70.53448L999.211865 203.052596c0-46.42456-37.634347-84.032311-84.032311-84.032311L272.01787 119.020285c-26.357341 0-49.855536 12.141399-65.281629 31.118153L128.049869 150.138438c12.021714-47.701203 55.188177-82.995039 106.612919-82.995039L945.247136 67.143399c60.733591 0 109.977403 49.230513 109.977403 109.964105l0 515.590556C1055.22454 748.125607 1014.185813 793.96504 960.819511 801.531804L960.819511 801.531804z" p-id="2332" fill="#cdcdcd"></path><path d="M934.887717 330.637022l0 515.577258c0 60.720293-49.230513 109.964105-109.977403 109.964105L114.325966 956.178385c-60.733591 0-109.964105-49.230513-109.964105-109.964105l0-515.577258c0-60.720293 49.230513-109.964105 109.964105-109.964105l710.584348 0C885.657204 220.672918 934.887717 269.903431 934.887717 330.637022L934.887717 330.637022z" p-id="2333" fill="#cdcdcd"></path><path d="M118.222384 291.220696c-22.926366 0-41.504169 18.564505-41.504169 41.504169l0 507.784421c0 22.926366 18.577803 41.49087 41.504169 41.49087l704.374016 0c22.913067 0 41.477572-18.564505 41.477572-41.49087L864.073972 332.724864c0-22.926366-18.564505-41.504169-41.477572-41.504169L118.222384 291.220696 118.222384 291.220696z" p-id="2334" fill="#cdcdcd"></path><path d="M308.309083 621.11301 452.503156 726.901431 673.468637 471.71928 790.693644 799.537051 154.792863 799.537051 308.309083 621.11301Z" p-id="2335" fill="#cdcdcd"></path><path d="M238.811875 549.514662c-56.145659 0-101.665931-45.520272-101.665931-101.652632 0-56.158957 45.520272-101.679229 101.665931-101.679229 56.145659 0 101.652632 45.520272 101.652632 101.679229C340.464507 503.99439 294.957534 549.514662 238.811875 549.514662L238.811875 549.514662z" p-id="2336" fill="#cdcdcd"></path><path d="M238.811875 386.649697c-33.804421 0-61.199034 27.407911-61.199034 61.225631 0 33.804421 27.394613 61.199034 61.199034 61.199034s61.199034-27.394613 61.199034-61.199034C300.010909 414.057609 272.616296 386.649697 238.811875 386.649697L238.811875 386.649697z" p-id="2337" fill="#cdcdcd"></path><path d="M238.811875 386.649697" p-id="2338" fill="#cdcdcd"></path></svg>