<?xml version="1.0" standalone="no"?><!DOCTYPE svg PUBLIC "-//W3C//DTD SVG 1.1//EN" "http://www.w3.org/Graphics/SVG/1.1/DTD/svg11.dtd"><svg t="1512877161435" class="icon" style="" viewBox="0 0 1024 1024" version="1.1" xmlns="http://www.w3.org/2000/svg" p-id="3354" xmlns:xlink="http://www.w3.org/1999/xlink" width="60" height="60"><defs><style type="text/css"></style></defs><path d="M513.861818 1024c-282.065455 0-510.138182-228.072727-510.138182-510.138182 0-282.065455 228.072727-510.138182 510.138182-510.138182 282.065455 0 510.138182 228.072727 510.138182 510.138182 0 281.134545-228.072727 510.138182-510.138182 510.138182z" fill="#FFFFFF" p-id="3355"></path><path d="M513.861818 3.723636c-282.065455 0-510.138182 228.072727-510.138182 510.138182s228.072727 510.138182 510.138182 510.138182c282.065455 0 510.138182-228.072727 510.138182-510.138182 0-282.065455-228.072727-510.138182-510.138182-510.138182z m-153.6 842.472728c-13.032727 0-23.272727-10.24-24.203636-23.272728-4.654545-156.392727 59.578182-247.621818 107.054545-293.236363-18.618182-31.650909-16.756364-73.541818 6.516364-104.261818 30.72-40.029091 87.505455-46.545455 126.603636-15.825455s46.545455 89.367273 15.825455 129.396364c-27.927273 36.305455-77.265455 44.683636-115.432727 23.272727-40.029091 38.167273-96.814545 118.225455-93.09091 258.792727 0 13.963636-10.24 25.134545-23.272727 25.134546z m160.116364-137.774546c-15.825455 0-31.650909-1.861818-47.476364-5.585454-13.032727-2.792727-20.48-15.825455-17.687273-27.927273 2.792727-13.032727 15.825455-21.410909 27.927273-17.687273 12.101818 2.792727 24.203636 4.654545 37.236364 4.654546 95.883636 0 174.08-80.058182 174.08-177.803637 0-97.745455-78.196364-177.803636-174.08-177.803636s-174.08 80.058182-174.08 177.803636c0 19.549091 2.792727 38.167273 9.309091 56.785455 4.654545 12.101818-2.792727 26.065455-14.894546 29.789091-12.101818 4.654545-25.134545-2.792727-29.789091-14.894546-7.447273-23.272727-12.101818-47.476364-12.101818-71.68 0-123.810909 99.607273-225.28 220.625455-225.28s220.625455 101.469091 220.625454 225.28c0.930909 122.88-97.745455 224.349091-219.694545 224.349091z" fill="#39A6D5" p-id="3356"></path></svg>