<?xml version="1.0" standalone="no"?><!DOCTYPE svg PUBLIC "-//W3C//DTD SVG 1.1//EN" "http://www.w3.org/Graphics/SVG/1.1/DTD/svg11.dtd"><svg t="1512877120627" class="icon" style="" viewBox="0 0 1024 1024" version="1.1" xmlns="http://www.w3.org/2000/svg" p-id="2005" xmlns:xlink="http://www.w3.org/1999/xlink" width="60" height="60"><defs><style type="text/css"></style></defs><path d="M658.918 443.603c-178.697-32.073-326.847 4.583-326.847 4.583 87.058-3.055 226.044 16.8 226.044 16.8L367.2 605.5c116.947 18.074 236.112 5.806 297.742-3.32l-1.518-8.852c-78.52-4.359-187.785-16.846-187.785-16.846l183.28-132.878zM511.675 64.344c-247.042 0-447.309 200.268-447.309 447.31s200.267 447.308 447.309 447.308 447.308-200.267 447.308-447.309S758.716 64.344 511.675 64.344z m151.749 528.983c16.605 0.922 31.837 1.481 44.368 1.481 0 0-15.942 3.386-42.85 7.37l29.331 171.017L508.62 675.59l-185.653 97.604 35.456-206.729-150.198-146.404 207.568-30.16 92.827-188.089 92.827 188.088 207.568 30.161-150.198 146.406 4.607 26.86z m138.42-161.27" fill="#f5bf3b" p-id="2006"></path></svg>