<?xml version="1.0" standalone="no"?><!DOCTYPE svg PUBLIC "-//W3C//DTD SVG 1.1//EN" "http://www.w3.org/Graphics/SVG/1.1/DTD/svg11.dtd"><svg t="1511785294180" class="icon" style="" viewBox="0 0 1024 1024" version="1.1" xmlns="http://www.w3.org/2000/svg" p-id="1039" xmlns:xlink="http://www.w3.org/1999/xlink" width="20" height="20"><defs><style type="text/css"></style></defs><path d="M1004.683561 914.248364 806.291095 715.885574c55.970756-74.736145 89.122807-167.555134 89.122807-268.128737 0-247.25636-200.408379-447.696462-447.696462-447.696462-247.25636 0-447.696462 200.440102-447.696462 447.696462 0 247.288083 200.440102 447.696462 447.696462 447.696462 100.576673 0 193.398732-33.153074 268.1359-89.127923L914.184407 1004.651326c25.007557 25.039279 65.523319 25.039279 90.499154 0C1029.626649 979.708238 1029.626649 939.191452 1004.683561 914.248364zM447.71744 767.540024c-176.552042 0-319.783187-143.134955-319.783187-319.783187 0-176.552042 143.231145-319.719742 319.783187-319.719742 176.648232 0 319.783187 143.166677 319.783187 319.719742C767.500627 624.405069 624.365672 767.540024 447.71744 767.540024z" p-id="1040" fill="#cdcdcd"></path></svg>