<?xml version="1.0" standalone="no"?><!DOCTYPE svg PUBLIC "-//W3C//DTD SVG 1.1//EN" "http://www.w3.org/Graphics/SVG/1.1/DTD/svg11.dtd"><svg t="1511517424536" class="icon" style="" viewBox="0 0 1093 1024" version="1.1" xmlns="http://www.w3.org/2000/svg" p-id="1571" xmlns:xlink="http://www.w3.org/1999/xlink" width="64.04296875" height="60"><defs><style type="text/css"></style></defs><path d="M409.6 477.866667C409.6 477.866667 273.066667 477.866667 273.066667 477.866667 273.066667 477.866667 273.066667 614.4 273.066667 614.4 273.066667 614.4 409.6 614.4 409.6 614.4 409.6 614.4 409.6 477.866667 409.6 477.866667 409.6 477.866667 409.6 477.866667 409.6 477.866667ZM409.6 682.666667C409.6 682.666667 273.066667 682.666667 273.066667 682.666667 273.066667 682.666667 273.066667 819.2 273.066667 819.2 273.066667 819.2 409.6 819.2 409.6 819.2 409.6 819.2 409.6 682.666667 409.6 682.666667 409.6 682.666667 409.6 682.666667 409.6 682.666667ZM614.4 477.866667C614.4 477.866667 477.866667 477.866667 477.866667 477.866667 477.866667 477.866667 477.866667 614.4 477.866667 614.4 477.866667 614.4 614.4 614.4 614.4 614.4 614.4 614.4 614.4 477.866667 614.4 477.866667 614.4 477.866667 614.4 477.866667 614.4 477.866667ZM614.4 682.666667C614.4 682.666667 477.866667 682.666667 477.866667 682.666667 477.866667 682.666667 477.866667 819.2 477.866667 819.2 477.866667 819.2 614.4 819.2 614.4 819.2 614.4 819.2 614.4 682.666667 614.4 682.666667 614.4 682.666667 614.4 682.666667 614.4 682.666667ZM819.2 477.866667C819.2 477.866667 682.666667 477.866667 682.666667 477.866667 682.666667 477.866667 682.666667 614.4 682.666667 614.4 682.666667 614.4 819.2 614.4 819.2 614.4 819.2 614.4 819.2 477.866667 819.2 477.866667 819.2 477.866667 819.2 477.866667 819.2 477.866667ZM819.2 682.666667C819.2 682.666667 682.666667 682.666667 682.666667 682.666667 682.666667 682.666667 682.666667 819.2 682.666667 819.2 682.666667 819.2 819.2 819.2 819.2 819.2 819.2 819.2 819.2 682.666667 819.2 682.666667 819.2 682.666667 819.2 682.666667 819.2 682.666667ZM1024 136.533333C1024 136.533333 955.733333 136.533333 955.733333 136.533333 955.733333 136.533333 955.733333 273.066667 955.733333 273.066667 955.733333 273.066667 750.933333 273.066667 750.933333 273.066667 750.933333 273.066667 750.933333 136.533333 750.933333 136.533333 750.933333 136.533333 341.333333 136.533333 341.333333 136.533333 341.333333 136.533333 341.333333 273.066667 341.333333 273.066667 341.333333 273.066667 136.533333 273.066667 136.533333 273.066667 136.533333 273.066667 136.533333 136.533333 136.533333 136.533333 136.533333 136.533333 68.266667 136.533333 68.266667 136.533333 30.5152 136.533333 0 167.0144 0 204.8 0 204.8 0 955.733333 0 955.733333 0 993.4848 30.5152 1024 68.266667 1024 68.266667 1024 1024 1024 1024 1024 1061.751467 1024 1092.266667 993.4848 1092.266667 955.733333 1092.266667 955.733333 1092.266667 204.8 1092.266667 204.8 1092.266667 167.0144 1061.751467 136.533333 1024 136.533333 1024 136.533333 1024 136.533333 1024 136.533333ZM955.733333 887.466667C955.733333 887.466667 136.533333 887.466667 136.533333 887.466667 136.533333 887.466667 136.533333 409.6 136.533333 409.6 136.533333 409.6 955.733333 409.6 955.733333 409.6 955.733333 409.6 955.733333 887.466667 955.733333 887.466667 955.733333 887.466667 955.733333 887.466667 955.733333 887.466667ZM273.066667 33.6896C273.066667 15.1552 257.9456 0 239.377067 0 239.377067 0 238.728533 0 238.728533 0 219.921067 0 204.8 15.1552 204.8 33.6896 204.8 33.6896 204.8 204.8 204.8 204.8 204.8 204.8 273.066667 204.8 273.066667 204.8 273.066667 204.8 273.066667 33.6896 273.066667 33.6896 273.066667 33.6896 273.066667 33.6896 273.066667 33.6896ZM887.466667 33.6896C887.466667 15.1552 872.3456 0 853.777067 0 853.777067 0 853.128533 0 853.128533 0 834.321067 0 819.2 15.1552 819.2 33.6896 819.2 33.6896 819.2 204.8 819.2 204.8 819.2 204.8 887.466667 204.8 887.466667 204.8 887.466667 204.8 887.466667 33.6896 887.466667 33.6896 887.466667 33.6896 887.466667 33.6896 887.466667 33.6896Z" p-id="1572" fill="#cdcdcd"></path></svg>